:SAMPLES-PER-SECOND 30
:FULLY-SPECIFIED
:DEGREES
572
root  -1.02756 40.9681 -3.17929 -68.8019 -88.6218 66.5271
RightUpLeg  0.596037 -9.0776 -5.65163
RightLeg  7.09534 -6.15722 3.65291
RightFoot  -4.27218 0.0867705 -1.87231
RightToes  0.00048216 0.542163 -0.142577
Spine  4.14693 0.514175 1.65453
Spine1  2.49601 0.965152 -1.55812
HEad  -9.54001 -15.1968 -0.360289
LeftShoulder1  0.536038 -1.05171 -3.70706
LeftArm  -17.1977 10.4146 -5.76603
LeftForeArm  10.176 -1.50979 -1.73147
LeftHand  -0.25398 0.0180481 5.50724
RightShoulder  0.82006 1.54699 8.83898
RightArm  -16.3502 -3.99118 1.14738
RightForeArm  -7.14188 2.88986 4.66325
RightHand  -3.85482 11.3548 -26.7087
LeftUpLeg  2.38095 4.21199 0.2459
LeftLeg  1.79963 15.7103 -4.50486
LeftFoot  -3.20634 -0.140435 2.24706
LeftToes  1.06245e-005 4.65855e-005 -8.18504e-006
573
root  -0.987068 40.9754 -3.13809 -80.7655 -88.6698 78.6062
RightUpLeg  0.33974 -8.98687 -5.63788
RightLeg  7.10262 -6.01145 3.56331
RightFoot  -4.13689 0.0975578 -1.99361
RightToes  0.00048216 0.542163 -0.142577
Spine  4.2234 0.557333 1.68993
Spine1  2.41451 1.04112 -1.69358
HEad  -9.8187 -15.0106 -0.272349
LeftShoulder1  0.534222 -1.07129 -3.60758
LeftArm  -17.3097 10.7235 -5.63634
LeftForeArm  9.23193 -1.35008 -1.64566
LeftHand  -0.25398 0.0180481 5.50724
RightShoulder  0.798853 1.41218 8.85033
RightArm  -16.5277 -3.97608 1.21167
RightForeArm  -5.9218 2.98397 4.54231
RightHand  -3.72736 11.147 -26.1766
LeftUpLeg  2.33128 4.11645 0.109309
LeftLeg  1.51259 16.1261 -4.57764
LeftFoot  -3.01494 -0.153449 2.35804
LeftToes  1.06245e-005 4.65855e-005 -8.18504e-006
574
root  -0.943195 40.9808 -3.08332 -95.5833 -88.6761 93.3871
RightUpLeg  0.198748 -8.97243 -5.68884
RightLeg  7.17878 -5.70901 3.51367
RightFoot  -3.95009 0.104401 -2.03318
RightToes  0.00048216 0.542163 -0.142577
Spine  4.46655 0.561627 1.79684
Spine1  2.35868 1.06466 -1.75068
HEad  -10.0005 -14.8454 -0.321333
LeftShoulder1  0.529309 -0.915084 -3.94261
LeftArm  -17.7588 10.9784 -5.07179
LeftForeArm  8.13181 -1.66121 -1.48032
LeftHand  -0.25398 0.0180481 5.50724
RightShoulder  0.754771 1.28133 8.31885
RightArm  -16.9343 -3.85331 1.55106
RightForeArm  -4.47964 3.07549 4.35338
RightHand  -3.53517 10.7782 -25.4313
LeftUpLeg  2.39304 4.08252 0.0100602
LeftLeg  1.33533 16.5177 -4.65766
LeftFoot  -2.87585 -0.168415 2.5101
LeftToes  1.06245e-005 4.65855e-005 -8.18504e-006
575
root  -0.912066 40.9815 -3.02874 -108.972 -88.6226 106.681
RightUpLeg  0.197315 -9.04828 -5.80295
RightLeg  7.18465 -5.30773 3.5666
RightFoot  -3.79894 0.100369 -1.92057
RightToes  0.00048216 0.542163 -0.142577
Spine  4.61962 0.561378 1.91638
Spine1  2.42726 1.0762 -1.79798
HEad  -10.0375 -14.837 -0.489267
LeftShoulder1  0.520649 -0.735871 -4.27272
LeftArm  -18.1285 11.1437 -4.52805
LeftForeArm  7.38527 -2.08913 -1.36839
LeftHand  -0.25398 0.0180481 5.50724
RightShoulder  0.727273 1.24722 7.79808
RightArm  -17.3964 -3.68611 1.70045
RightForeArm  -3.86728 3.1122 4.1955
RightHand  -3.36544 10.3352 -24.9165
LeftUpLeg  2.45039 4.12166 -0.0460588
LeftLeg  1.34196 16.8255 -4.71001
LeftFoot  -2.82331 -0.183319 2.69031
LeftToes  1.06245e-005 4.65855e-005 -8.18504e-006
576
root  -0.898057 40.9838 -2.99507 -117.012 -88.5581 114.647
RightUpLeg  0.244939 -9.0739 -5.85408
RightLeg  7.14693 -5.08881 3.59173
RightFoot  -3.72917 0.100747 -1.89183
RightToes  0.00048216 0.542163 -0.142577
Spine  4.61889 0.569631 1.95928
Spine1  2.51713 1.09159 -1.83458
HEad  -9.84781 -14.9199 -0.658781
LeftShoulder1  0.511948 -0.672454 -4.24752
LeftArm  -18.281 11.266 -4.31001
LeftForeArm  7.07685 -2.39474 -1.33688
LeftHand  -0.25398 0.0180481 5.50724
RightShoulder  0.72384 1.27605 7.6136
RightArm  -17.6398 -3.52008 1.51437
RightForeArm  -4.20525 3.07588 4.15616
RightHand  -3.26731 10.0094 -24.7092
LeftUpLeg  2.49005 4.14626 -0.0809189
LeftLeg  1.3847 17.0448 -4.71404
LeftFoot  -2.79978 -0.191885 2.79597
LeftToes  1.06245e-005 4.65855e-005 -8.18504e-006
577
root  -0.891149 40.9859 -2.98244 -119.547 -88.5349 117.109
RightUpLeg  0.296808 -9.0093 -5.83
RightLeg  7.14606 -5.08756 3.52917
RightFoot  -3.68893 0.104338 -1.92534
RightToes  0.00048216 0.542163 -0.142577
Spine  4.58258 0.556447 1.92132
Spine1  2.54516 1.08193 -1.84068
HEad  -9.42922 -14.9416 -0.776913
LeftShoulder1  0.512915 -0.742213 -4.04988
LeftArm  -18.2228 11.3194 -4.22914
LeftForeArm  7.30641 -2.54978 -1.36672
LeftHand  -0.25398 0.0180481 5.50724
RightShoulder  0.734106 1.31918 7.70049
RightArm  -17.6645 -3.3617 1.22102
RightForeArm  -4.6786 3.0113 4.18883
RightHand  -3.25602 9.96176 -24.6998
LeftUpLeg  2.56239 4.11612 -0.111713
LeftLeg  1.36382 17.1749 -4.68653
LeftFoot  -2.75771 -0.193255 2.79589
LeftToes  1.06245e-005 4.65855e-005 -8.18504e-006
578
root  -0.883776 40.9863 -2.97645 -119.698 -88.5239 117.196
RightUpLeg  0.345613 -8.96533 -5.83084
RightLeg  7.14993 -5.08592 3.47574
RightFoot  -3.65395 0.101385 -1.86447
RightToes  0.00048216 0.542163 -0.142577
Spine  4.54516 0.51889 1.87754
Spine1  2.55447 1.0561 -1.89201
HEad  -8.9086 -14.8918 -0.858638
LeftShoulder1  0.519949 -0.844098 -3.91683
LeftArm  -18.013 11.2651 -4.12237
LeftForeArm  7.96742 -2.63726 -1.44658
LeftHand  -0.25398 0.0180481 5.50724
RightShoulder  0.751678 1.38231 7.88339
RightArm  -17.6363 -3.24898 1.02922
RightForeArm  -4.6538 3.02258 4.2072
RightHand  -3.28895 10.0796 -24.7578
LeftUpLeg  2.61594 4.06405 -0.160557
LeftLeg  1.35741 17.2713 -4.63978
LeftFoot  -2.72256 -0.193224 2.7772
LeftToes  1.06245e-005 4.65855e-005 -8.18504e-006
579
root  -0.874819 40.9838 -2.96814 -121.234 -88.4726 118.71
RightUpLeg  0.375169 -8.98258 -5.8784
RightLeg  7.0867 -5.00031 3.49036
RightFoot  -3.64175 0.0982039 -1.80478
RightToes  0.00048216 0.542163 -0.142577
Spine  4.5001 0.496607 1.8829
Spine1  2.56875 1.06018 -2.03907
HEad  -8.47934 -14.8447 -0.921344
LeftShoulder1  0.518661 -0.875112 -3.78972
LeftArm  -17.8359 11.1671 -4.15336
LeftForeArm  8.6194 -2.73953 -1.52895
LeftHand  -0.25398 0.0180481 5.50724
RightShoulder  0.76667 1.43817 8.02894
RightArm  -17.6364 -3.18816 0.995848
RightForeArm  -4.23076 3.12597 4.19577
RightHand  -3.28 10.0762 -24.6986
LeftUpLeg  2.60432 4.0248 -0.230416
LeftLeg  1.39529 17.4083 -4.59093
LeftFoot  -2.71844 -0.195916 2.80311
LeftToes  1.06245e-005 4.65855e-005 -8.18504e-006
